<mxfile host="app.diagrams.net" modified="2023-07-06T10:31:08.558Z" agent="Mozilla/5.0 (Macintosh; Intel Mac OS X 10.15; rv:109.0) Gecko/20100101 Firefox/113.0" version="21.3.7" etag="v0WPQS-uqWvEcupCOq92" type="github">
  <diagram name="Страница 1" id="W-GrdY2vFdLYjn7a8ycr">
    <mxGraphModel>
      <root>
        <mxCell id="0" />
        <mxCell id="1" parent="0" />
      </root>
    </mxGraphModel>
  </diagram>
</mxfile>
